<svg xmlns="http://www.w3.org/2000/svg" width="80" height="80"><circle fill="#FFC600" cx="40" cy="40" r="33.656"/><path fill="#FFF" d="M27.001 22.89s-2.245-.375-2.11 5.58c0 0 .375 6.736 1.837 9.56l-2.348-2.801s-1.326-5.16-.68-9.753c0 0 .783-4.457 3.708-4.15l-.407 1.564zM37.265 21.309s3.221.628 3.175 5.935c0 0 .091 6.668-1.814 10.252l-.362-2.676s2.404-10.615-.998-12.066v-1.445z"/><path fill="#128DD2" d="M23.996 35.364s0 8.393 6.646 9.276v6.85s.113 5.443 5.148 7.688c0 0 7.849 3.516 12-4.785 0 0 .726-.816.635-5.852 0 0-.544-14.131 1.225-14.199l-2.178-1.792s-1.36.091-1.587 6.623l-.068 10.207s.544 3.788-1.475 5.898c0 0-3.813 4.377-9.052.566 0 0-1.86-1.406-2.064-4.514l-.022-6.713s4.536-.023 6.01-5.83l.635-2.744s.25-1.089-.998-1.474c0 0-1.18-.386-1.587 1.52 0 0-.545 3.788-2.358 5.217 0 0-3.063 2.199-6.42-.431 0 0-1.156-.998-1.927-5.013 0 0-.069-1.565-1.678-1.315 0 0-.636.091-.885.817zM27.531 20.082c-.517 0-.981.215-1.312.561v2.519a1.821 1.821 0 1 0 1.312-3.08zM36.341 20.082c.515 0 .98.215 1.312.561v2.519a1.821 1.821 0 1 1-1.312-3.08z"/><circle fill="#FFF" cx="51.362" cy="30.113" r="5.114"/><circle fill="#128DD2" cx="51.373" cy="30.192" r="1.724"/></svg>