<svg xmlns="http://www.w3.org/2000/svg" width="80" height="80"><circle fill="#FFC600" cx="40" cy="40" r="33.656"/><path fill="#EDEDED" d="M20.307 28.818h39.387v3.973H20.307z"/><path fill="#FFF" d="M20.307 32.731h39.387v26.891H20.307z"/><path fill="#128DD2" d="M36.308 49.698l-1.891 3.781h11.122l-1.759-3.781z"/><path fill="#EDEDED" d="M36.308 53.479h7.341v6.144h-7.341z"/><path fill="#128DD2" d="M22.725 37.435h3.78v3.736h-3.78zM28.878 37.435h3.781v3.736h-3.781zM35.033 37.435h3.78v3.736h-3.78zM41.187 37.435h3.779v3.736h-3.779zM47.296 37.435h3.782v3.736h-3.782zM53.451 37.435h3.78v3.736h-3.78zM22.746 43.589h3.781v3.736h-3.781zM28.9 43.589h3.78v3.736H28.9zM22.746 49.721h3.781v3.735h-3.781zM28.9 49.721h3.78v3.735H28.9zM35.055 43.589h3.781v3.736h-3.781zM41.209 43.589h3.779v3.736h-3.779zM47.318 43.589h3.781v3.736h-3.781zM53.473 43.589h3.781v3.736h-3.781zM47.318 49.721h3.781v3.735h-3.781zM53.473 49.721h3.781v3.735h-3.781zM47.3 33.606a1.28 1.28 0 0 1-1.283 1.278H33.946a1.281 1.281 0 0 1-1.284-1.278v-11.95a1.28 1.28 0 0 1 1.284-1.277h12.071a1.28 1.28 0 0 1 1.283 1.277v11.95z"/><path fill-rule="evenodd" clip-rule="evenodd" fill="#FFF" d="M35.499 26.132h2.982v-2.986h2.998v2.974h2.985v3.006h-2.973v2.992h-2.999v-2.979h-2.993v-3.007z"/></svg>