<svg xmlns="http://www.w3.org/2000/svg" width="80" height="80"><circle fill="#FFC600" cx="40" cy="40" r="33.656"/><path fill="#128DD2" d="M32.458 25.67v-3.662s.196-1.96 2.319-2.208h10.837s2.202.291 2.202 2.642v3.514h-2.613s.081-1.905-.354-2.293c0 0-.297-1.084-2.088-1.152l-5.773-.023s-2.047.077-1.99 3.184h-2.54z"/><path fill="#EDEDED" d="M30.575 25.67h6.333v2.362h-6.333zM43.377 25.67h6.333v2.362h-6.333z"/><path fill="#FFF" d="M60.493 55.45a2.746 2.746 0 0 1-2.739 2.751H22.246a2.745 2.745 0 0 1-2.739-2.751V30.235a2.744 2.744 0 0 1 2.739-2.751h35.508a2.746 2.746 0 0 1 2.739 2.751V55.45z"/><path fill-rule="evenodd" clip-rule="evenodd" fill="#128DD2" d="M30.386 40.063h6.396v-6.405h6.43v6.379h6.401v6.449h-6.374v6.417h-6.434v-6.39h-6.419v-6.45z"/></svg>